<?xml version="1.0" standalone="no"?>
<!DOCTYPE svg PUBLIC "-//W3C//DTD SVG 20010904//EN"
 "http://www.w3.org/TR/2001/REC-SVG-20010904/DTD/svg10.dtd">
<svg version="1.0" xmlns="http://www.w3.org/2000/svg"
 width="1312.000000pt" height="1312.000000pt" viewBox="0 0 1312.000000 1312.000000"
 preserveAspectRatio="xMidYMid meet">
<metadata>
Created by potrace 1.11, written by Peter Selinger 2001-2013
</metadata>
<g transform="translate(0.000000,1312.000000) scale(0.100000,-0.100000)"
fill="#000000" stroke="none">
<path d="M6238 13088 c-2 -18 -1 -63 2 -100 3 -38 3 -68 0 -68 -3 0 -4 -44 -3
-97 1 -54 2 -117 3 -139 l0 -42 45 1 c25 0 47 -2 50 -4 2 -3 29 -2 60 1 31 3
57 4 60 2 8 -8 249 -2 258 7 5 5 8 60 7 122 -2 116 -1 152 1 166 1 4 1 47 0
96 l-1 87 -239 0 -240 0 -3 -32z"/>
<path d="M3747 12247 c-78 -106 -170 -235 -189 -265 -9 -15 -22 -32 -27 -39
-8 -9 0 -20 31 -43 24 -17 74 -53 111 -80 37 -28 70 -50 72 -50 3 0 13 -7 22
-15 10 -8 45 -35 78 -60 l60 -45 20 24 c11 14 31 41 45 61 14 20 30 42 35 48
6 7 31 41 55 77 25 36 50 71 57 78 7 7 20 26 30 42 9 17 21 30 25 30 4 0 8 8
8 18 0 17 -92 89 -327 254 l-53 37 -53 -72z"/>
<path d="M8915 12239 c-60 -44 -118 -86 -128 -94 -9 -8 -21 -15 -27 -15 -5 0
-13 -6 -17 -13 -4 -7 -29 -26 -54 -43 -42 -27 -51 -48 -29 -64 4 -3 24 -30 45
-60 21 -30 45 -61 52 -68 7 -7 13 -20 13 -28 0 -8 5 -12 10 -9 6 3 10 1 10 -5
0 -10 28 -50 107 -158 l24 -32 37 27 c20 16 39 30 42 33 3 3 13 10 22 15 33
20 277 196 282 203 4 6 -35 63 -97 143 -6 8 -16 23 -22 31 -27 43 -146 208
-153 211 -4 3 -56 -31 -117 -74z"/>
<path d="M6397 12164 c-2 -2 -35 -7 -73 -9 -67 -5 -110 -10 -184 -21 -19 -2
-48 -6 -65 -9 -16 -2 -61 -11 -100 -20 -38 -9 -79 -19 -90 -21 -75 -14 -425
-148 -462 -177 -7 -5 -38 -22 -70 -39 -82 -43 -252 -156 -319 -213 -301 -256
-477 -476 -642 -802 -23 -46 -40 -83 -37 -83 2 0 -7 -20 -21 -45 -13 -25 -22
-45 -18 -45 3 0 -1 -11 -10 -25 -9 -14 -14 -25 -12 -25 3 0 -8 -38 -24 -85
-16 -47 -27 -85 -24 -85 3 0 0 -8 -5 -17 -5 -10 -12 -31 -15 -48 -3 -16 -12
-59 -19 -95 -27 -123 -39 -224 -41 -357 0 -46 -3 -83 -6 -83 -3 0 -5 -11 -5
-25 0 -14 2 -25 5 -25 3 0 5 -33 6 -73 1 -66 9 -177 18 -237 11 -72 22 -132
30 -158 3 -9 8 -30 11 -47 8 -38 13 -60 15 -60 1 0 3 -7 5 -15 8 -44 64 -207
92 -270 58 -132 156 -319 185 -355 5 -5 23 -32 40 -60 18 -27 35 -52 38 -55 3
-3 25 -32 50 -64 119 -158 314 -345 478 -461 39 -27 71 -57 71 -65 1 -17 1
-44 1 -62 0 -7 0 -31 1 -53 0 -22 0 -44 -1 -50 -5 -27 -4 -52 2 -67 5 -9 4
-20 -2 -23 -7 -4 -7 -13 0 -26 6 -10 7 -19 2 -19 -5 0 -6 -23 -2 -50 4 -28 4
-53 0 -55 -8 -5 -4 -71 5 -85 3 -6 2 -10 -2 -10 -5 0 -8 -15 -6 -32 4 -40 6
-99 3 -113 -5 -27 -4 -52 2 -67 5 -9 4 -20 -2 -23 -7 -4 -7 -13 0 -26 6 -10 7
-19 2 -19 -5 0 -6 -23 -2 -50 4 -28 4 -53 0 -55 -8 -5 -4 -71 5 -85 3 -6 2
-10 -3 -10 -5 0 -8 -12 -5 -27 2 -16 6 -53 8 -83 10 -117 72 -268 153 -370 20
-25 64 -69 98 -99 68 -58 66 -53 64 -176 -1 -75 -1 -90 4 -145 3 -30 12 -81
20 -114 18 -66 93 -226 107 -226 5 0 9 -6 9 -14 0 -17 140 -156 157 -156 7 0
13 -4 13 -8 0 -4 26 -21 58 -37 31 -17 60 -34 64 -40 4 -5 10 -6 14 -2 4 4 12
3 18 -2 28 -22 173 -54 241 -52 6 0 42 0 80 0 39 0 88 1 110 2 22 1 46 1 53 0
28 -2 41 -3 127 -2 50 0 97 0 105 -1 8 0 48 2 88 6 128 11 276 71 382 154 48
38 139 141 160 182 7 14 16 27 20 30 6 4 27 58 66 165 10 28 12 42 19 115 3
35 7 66 9 68 2 1 0 19 -4 38 -4 19 -4 36 0 39 5 3 5 17 1 33 -11 41 5 94 36
121 55 46 78 68 108 102 42 49 75 96 75 109 0 5 4 10 10 10 5 0 9 3 8 8 0 4 7
25 17 47 10 22 19 42 20 45 0 3 3 10 6 15 6 9 14 41 26 95 3 13 7 58 16 150 1
14 -1 35 -5 47 -4 12 -3 25 2 28 5 3 6 16 2 28 -6 20 -7 54 -2 82 4 26 2 104
-4 113 -3 6 -2 13 3 17 6 3 7 16 3 28 -6 20 -7 54 -2 82 4 23 1 105 -4 114 -4
5 -2 12 3 16 6 3 7 16 3 28 -6 20 -7 54 -2 82 4 26 2 104 -4 113 -3 6 -2 13 4
17 7 4 7 12 0 24 -5 10 -7 21 -4 24 3 3 6 44 6 92 0 69 3 88 16 93 9 3 23 11
32 18 12 11 61 48 105 81 73 55 237 211 310 294 70 81 115 138 115 147 0 6 3
12 8 14 32 14 252 391 252 433 0 8 5 15 10 15 6 0 10 7 10 15 0 8 4 23 9 33
17 30 78 210 86 250 2 9 4 17 5 17 1 0 4 11 6 25 3 14 9 43 15 65 17 61 26
107 34 175 3 25 8 63 11 85 3 22 7 70 9 106 1 37 5 71 9 77 3 6 2 13 -3 17 -6
3 -7 15 -2 28 5 12 5 32 0 45 -5 14 -5 22 2 22 6 0 7 5 3 11 -4 6 -8 41 -9 78
-4 106 -15 195 -41 331 -2 14 -13 59 -24 100 -11 41 -22 84 -24 95 -11 55 -76
225 -126 330 -24 50 -44 92 -45 95 0 3 -11 21 -23 40 -12 19 -28 47 -35 63 -6
15 -15 27 -19 27 -5 0 -8 5 -8 11 0 15 -126 192 -198 276 -31 37 -94 105 -140
151 -89 88 -273 242 -290 242 -6 0 -12 4 -14 8 -1 5 -28 24 -58 44 -140 91
-303 174 -440 225 -36 13 -72 27 -80 30 -8 3 -19 7 -25 8 -5 2 -37 11 -70 21
-70 21 -61 18 -150 39 -38 9 -78 17 -87 20 -9 2 -43 6 -75 10 -32 3 -65 8 -74
11 -9 2 -69 6 -133 9 -64 2 -119 6 -124 9 -4 2 -14 1 -21 -4 -8 -4 -26 -4 -42
0 -15 5 -29 6 -32 4z m187 -489 c57 -2 116 -6 132 -9 16 -3 47 -7 69 -11 22
-3 67 -12 100 -21 33 -8 69 -16 80 -18 26 -5 93 -27 165 -56 30 -12 60 -23 65
-24 12 -2 171 -81 200 -99 73 -45 184 -120 200 -134 11 -10 38 -31 60 -48 47
-35 207 -195 244 -245 14 -19 32 -42 40 -50 36 -37 205 -315 210 -343 1 -6 26
-66 52 -122 5 -11 11 -29 13 -40 2 -11 10 -33 16 -50 19 -49 55 -193 65 -260
1 -11 6 -40 10 -65 4 -25 8 -87 10 -138 1 -51 5 -96 9 -99 3 -3 3 -10 0 -15
-4 -6 -8 -51 -10 -102 -2 -50 -5 -102 -8 -115 -3 -13 -8 -49 -12 -80 -3 -31
-11 -65 -17 -76 -6 -11 -9 -21 -8 -23 18 -19 -114 -378 -174 -473 -14 -21 -25
-43 -25 -49 0 -5 -5 -10 -11 -10 -5 0 -8 -4 -5 -8 3 -5 -3 -18 -12 -28 -10
-10 -28 -35 -40 -55 -73 -119 -233 -292 -372 -401 -47 -38 -90 -72 -97 -78 -7
-5 -17 -10 -23 -10 -5 0 -10 -4 -10 -10 0 -5 -7 -10 -15 -10 -8 0 -15 -4 -15
-10 0 -5 -5 -10 -11 -10 -6 0 -23 -8 -37 -19 -28 -19 -154 -84 -207 -107 -16
-7 -47 -20 -68 -29 -21 -9 -45 -18 -55 -20 -9 -2 -30 -8 -45 -14 -50 -19 -223
-61 -273 -67 -27 -2 -60 -7 -74 -10 -14 -3 -64 -7 -113 -9 -48 -2 -92 -7 -97
-10 -6 -3 -10 -3 -10 2 0 4 -39 9 -88 9 -89 1 -152 8 -272 29 -19 4 -41 7 -47
7 -7 1 -13 5 -13 9 0 4 -8 6 -17 4 -10 -1 -29 2 -43 7 -14 5 -32 11 -40 13 -8
2 -34 10 -57 18 -22 9 -44 13 -47 10 -3 -4 -6 -2 -6 4 0 6 -12 14 -27 18 -40
9 -165 66 -187 84 -10 9 -19 14 -20 11 -1 -4 -24 9 -135 75 -47 28 -141 99
-141 106 0 5 -4 9 -10 9 -14 0 -49 31 -144 126 -86 84 -136 140 -136 149 0 3
-10 16 -21 28 -46 47 -230 347 -214 347 3 0 -1 10 -10 23 -13 21 -62 143 -70
177 -2 8 -4 16 -4 18 -1 1 0 3 1 5 1 1 -4 12 -11 25 -7 13 -14 31 -16 40 -26
119 -43 200 -43 212 0 8 -3 28 -7 44 -3 16 -8 73 -9 127 -2 54 -7 102 -11 108
-3 6 -3 11 2 11 4 0 9 35 9 78 1 68 10 187 14 187 1 0 3 9 4 20 4 23 14 80 21
114 2 13 11 48 20 77 9 30 15 56 15 59 0 3 7 19 15 35 9 17 13 30 11 30 -18 0
123 289 189 390 92 139 231 298 351 400 54 46 179 136 222 160 23 13 42 27 42
32 0 4 9 8 19 8 11 0 21 3 23 8 3 7 171 92 183 92 3 0 25 9 49 19 44 21 235
76 296 86 19 3 46 8 60 10 60 10 120 16 194 20 43 2 81 7 84 9 2 3 9 3 13 0 5
-3 56 -7 113 -9z m-830 -4039 c36 -13 66 -23 66 -21 0 2 19 -2 41 -11 41 -14
59 -18 117 -29 15 -3 47 -9 72 -15 107 -22 187 -31 300 -35 52 -1 100 -4 105
-5 6 -1 12 -1 15 0 17 6 67 3 63 -4 -4 -5 0 -6 7 -1 7 4 44 9 82 11 39 1 91 6
117 9 25 3 64 8 86 11 22 2 51 6 65 10 14 3 39 7 55 10 17 3 37 7 45 10 8 3
26 8 40 11 14 3 30 6 35 7 22 6 131 38 145 43 8 3 20 7 25 9 6 1 18 5 27 9 16
6 18 -1 19 -57 0 -64 -1 -117 -5 -153 -1 -11 1 -35 5 -53 4 -17 3 -35 -2 -38
-5 -3 -7 -9 -4 -14 5 -9 9 -96 5 -115 -4 -21 0 -166 5 -175 3 -5 1 -11 -5 -15
-6 -4 -8 -11 -4 -16 6 -11 7 -144 0 -174 -28 -122 -99 -189 -214 -202 -26 -2
-49 -6 -51 -8 -1 -2 -14 0 -27 5 -15 6 -34 6 -50 0 -16 -7 -23 -7 -19 0 4 7
-2 7 -19 0 -14 -5 -27 -6 -30 -2 -6 10 -48 8 -64 -2 -7 -4 -12 -4 -12 1 0 9
-103 9 -118 -1 -6 -3 -13 -2 -17 3 -4 7 -15 7 -30 1 -14 -5 -25 -6 -25 -2 0 4
-13 7 -30 7 -16 0 -30 -3 -30 -7 0 -4 -10 -4 -22 0 -27 9 -70 8 -87 -2 -6 -4
-11 -3 -11 1 0 10 -53 9 -69 -1 -5 -4 -12 -2 -16 3 -4 7 -15 7 -30 1 -14 -5
-25 -6 -25 -1 0 5 -17 5 -38 1 -21 -4 -48 -3 -60 1 -12 5 -34 4 -48 -1 -16 -7
-23 -7 -19 0 4 7 -2 7 -19 0 -14 -5 -27 -6 -30 -2 -6 10 -48 8 -64 -2 -7 -4
-12 -4 -12 1 0 4 -33 8 -73 9 -61 0 -79 5 -117 29 -46 29 -75 60 -98 104 -12
23 -24 120 -23 181 0 14 1 57 1 95 1 39 1 72 0 75 -4 15 -4 120 0 120 3 0 4
37 2 82 -2 46 -3 97 -3 113 2 137 1 166 -4 175 -3 6 -2 10 4 10 6 0 8 7 5 15
-8 19 -9 19 70 -9z m309 -1480 c4 4 136 8 147 4 18 -6 52 -5 56 1 2 5 15 4 28
-1 13 -5 26 -6 29 -4 7 8 202 8 214 1 5 -3 15 -2 23 3 7 4 20 5 29 2 20 -8 63
-7 84 1 9 3 19 2 22 -3 4 -6 13 -7 24 -1 9 5 23 6 31 1 7 -4 23 -4 36 0 12 5
25 6 28 3 7 -8 95 -8 103 0 3 4 14 2 25 -4 16 -9 19 -20 17 -67 -3 -71 -14
-106 -51 -158 -37 -52 -106 -88 -170 -88 -27 -1 -48 -5 -48 -9 0 -5 -4 -5 -10
-2 -13 8 -80 13 -80 6 0 -8 -79 -6 -86 2 -3 3 -17 2 -30 -3 -13 -5 -26 -6 -28
-1 -3 4 -26 5 -51 1 -25 -4 -48 -3 -51 1 -2 5 -15 4 -28 -1 -13 -5 -26 -6 -29
-4 -3 3 -34 7 -69 8 -49 2 -73 9 -108 31 -85 53 -112 105 -116 217 l-2 76 28
-8 c16 -4 30 -6 33 -4z"/>
<path d="M3225 9920 c-19 -4 -29 -11 -26 -21 2 -8 3 -18 3 -24 -6 -56 -5 -392
1 -388 4 2 5 -7 1 -22 -6 -26 -6 -27 39 -24 26 2 49 0 52 -3 3 -3 21 -2 40 2
19 4 36 6 39 3 2 -2 69 -4 147 -4 126 0 145 2 157 18 7 10 8 19 3 21 -5 2 -6
15 -1 33 5 16 5 29 1 29 -4 0 -5 22 -1 49 3 27 3 58 -1 68 -4 11 -3 26 1 33 5
8 4 22 -1 31 -5 10 -6 20 -1 23 8 5 6 91 -3 114 -2 6 0 12 5 12 6 0 6 9 1 23
-5 12 -12 22 -17 22 -5 0 -13 3 -19 6 -5 4 -19 3 -30 -1 -11 -4 -30 -4 -42 1
-13 5 -25 4 -28 -1 -3 -6 -15 -6 -30 0 -15 6 -27 6 -30 0 -3 -6 -15 -6 -30 0
-15 6 -27 6 -30 0 -3 -5 -15 -6 -29 0 -12 4 -29 4 -36 0 -8 -5 -21 -5 -29 -1
-9 5 -25 5 -36 1 -11 -4 -24 -4 -30 -1 -5 4 -23 5 -40 1z"/>
<path d="M9320 9920 c-7 -5 -20 -6 -28 -2 -11 4 -14 1 -9 -11 3 -9 2 -19 -3
-22 -7 -4 -6 -13 0 -25 6 -10 7 -21 2 -24 -8 -5 -7 -80 2 -103 3 -7 2 -13 -2
-13 -8 0 -8 -67 0 -75 3 -3 2 -23 -2 -45 -4 -22 -3 -37 1 -34 5 3 5 -6 -1 -20
-6 -17 -6 -27 1 -32 7 -4 7 -10 0 -18 -6 -7 -6 -17 -1 -26 5 -8 6 -18 4 -22
-3 -5 7 -8 23 -8 41 1 195 1 213 0 8 0 26 0 40 1 36 2 50 2 95 0 105 -4 105
-4 106 26 1 15 0 33 -1 38 -1 6 -2 16 -1 23 0 6 1 20 1 30 0 25 1 72 3 110 1
17 0 32 -3 32 -4 0 -4 86 0 100 6 17 -1 105 -8 112 -5 5 -18 9 -28 9 -43 -1
-61 -1 -109 0 -27 0 -54 0 -60 -1 -5 -1 -12 -2 -15 0 -15 5 -150 4 -150 -2 0
-4 -13 -3 -29 2 -15 4 -34 4 -41 0z"/>
<path d="M3058 7765 c-2 -3 -42 -7 -89 -10 -90 -5 -121 -9 -184 -27 -22 -6
-46 -13 -53 -14 -8 -1 -21 -6 -30 -10 -9 -4 -22 -8 -29 -10 -6 -1 -50 -21 -97
-45 -230 -115 -406 -307 -507 -554 -7 -16 -13 -34 -15 -40 -22 -87 -36 -139
-42 -157 -10 -34 -12 -5865 -2 -5923 17 -99 20 -111 43 -180 94 -276 278 -484
537 -609 126 -61 211 -84 365 -101 57 -6 7104 -6 7200 0 98 6 118 9 175 26 25
7 47 13 50 14 92 20 255 107 355 189 199 163 326 382 374 646 9 51 7 5866 -2
5925 -4 28 -12 66 -17 85 -5 19 -8 38 -7 41 1 3 -4 13 -12 22 -7 10 -11 17 -8
17 10 0 -50 134 -89 200 -44 75 -111 159 -178 223 -58 56 -168 137 -185 137
-6 0 -11 5 -11 10 0 6 -7 10 -15 10 -8 0 -15 5 -15 10 0 6 -6 10 -13 10 -7 0
-33 10 -57 21 -24 12 -49 22 -54 24 -6 1 -20 5 -31 9 -74 28 -185 48 -284 52
-51 1 -95 5 -98 8 -3 3 -13 1 -22 -4 -10 -5 -22 -5 -29 -1 -6 4 -37 4 -67 1
-30 -3 -55 -4 -55 -1 0 7 -114 4 -142 -3 -10 -2 -18 -1 -18 2 0 4 -17 6 -37 5
-47 -2 -93 -3 -115 -3 -10 0 -25 0 -33 0 -33 -1 -149 0 -275 0 -47 1 -100 -1
-118 -3 -17 -2 -37 0 -44 4 -7 4 -19 4 -28 -1 -9 -5 -21 -5 -28 -1 -6 4 -37 4
-67 1 -30 -3 -55 -4 -55 -1 0 7 -165 5 -177 -2 -4 -2 -17 -1 -28 3 -28 10 -56
0 -54 -19 1 -9 0 -18 -1 -21 -5 -15 -4 -73 3 -77 4 -2 3 -13 -3 -23 -7 -13 -7
-21 0 -25 6 -4 7 -12 1 -23 -5 -9 -5 -26 0 -40 5 -13 6 -21 1 -19 -8 6 -8
-100 0 -108 3 -3 2 -24 -2 -45 -4 -22 -4 -43 1 -46 4 -2 5 -12 2 -21 -5 -12
-2 -15 10 -10 9 3 17 2 17 -2 0 -5 16 -5 35 -1 20 4 38 4 41 -1 3 -5 10 -6 16
-3 14 9 86 9 94 1 3 -3 17 -2 30 3 14 6 26 6 29 0 3 -5 15 -6 28 -1 12 5 32 5
45 0 12 -5 22 -5 22 -1 0 4 11 7 25 7 14 0 25 -3 25 -6 0 -4 15 -4 33 1 18 4
43 3 55 -1 12 -5 22 -5 22 -1 0 8 52 8 67 -1 4 -2 17 -1 28 3 11 4 30 4 43 -1
12 -5 22 -5 22 -1 0 4 11 7 25 7 14 0 25 -3 25 -6 0 -4 15 -4 33 1 18 4 43 3
55 -1 12 -5 22 -5 22 -1 0 5 15 7 33 5 38 -4 116 -4 170 0 21 1 41 -1 43 -5 3
-4 16 -3 29 2 14 5 25 6 25 2 0 -7 41 -7 138 1 24 1 46 -1 48 -5 3 -4 16 -3
29 2 13 5 26 6 29 2 2 -4 36 -7 75 -6 39 0 71 -4 71 -8 0 -5 4 -7 9 -4 12 8
114 -28 161 -55 8 -5 24 -13 35 -18 23 -11 145 -124 145 -135 0 -4 14 -27 30
-51 17 -24 30 -49 30 -55 0 -6 7 -22 16 -35 9 -14 14 -25 10 -25 -3 0 -1 -12
5 -26 12 -33 27 -275 19 -319 -1 -5 -1 -50 0 -100 1 -49 2 -97 1 -105 0 -18 0
-328 0 -385 1 -22 0 -44 -1 -50 -1 -5 -1 -50 0 -100 1 -49 2 -97 1 -105 0 -18
0 -328 0 -385 1 -22 0 -44 -1 -50 -1 -5 -1 -50 0 -100 1 -49 2 -97 1 -105 0
-18 0 -328 0 -385 1 -22 0 -44 -1 -50 -1 -5 -1 -50 0 -100 1 -49 2 -97 1 -105
0 -18 0 -328 0 -385 1 -22 0 -44 -1 -50 -1 -5 -1 -50 0 -100 1 -49 2 -97 1
-105 0 -18 0 -328 0 -385 1 -22 0 -44 -1 -50 -1 -5 -1 -50 0 -100 1 -49 2 -97
1 -105 0 -22 0 -658 0 -705 1 -22 0 -44 -1 -50 -1 -5 -1 -50 0 -100 1 -49 2
-97 1 -105 0 -8 0 -175 0 -370 0 -195 0 -375 -1 -400 0 -25 0 -65 1 -90 1 -58
1 -45 -4 -190 -3 -84 -10 -140 -22 -170 -9 -25 -18 -50 -19 -55 -2 -14 -54
-102 -75 -128 -69 -85 -159 -149 -266 -189 l-60 -23 -3620 0 c-3789 0 -3700
-1 -3755 39 -8 6 -37 22 -63 36 -27 14 -73 49 -103 78 -54 53 -124 151 -124
175 0 7 -5 18 -10 23 -10 10 -13 19 -29 102 -8 38 -12 157 -11 292 0 143 0
280 -1 287 -1 5 0 13 1 18 1 6 1 51 0 100 -1 50 -1 97 -1 105 1 29 1 250 0
257 -1 5 0 13 1 18 1 6 1 51 0 100 -1 50 -1 97 -1 105 1 29 1 250 0 257 -1 5
0 13 1 18 1 6 1 51 0 100 -1 50 -2 97 -1 105 0 8 0 643 0 1410 0 767 0 1415 0
1440 1 124 1 280 0 287 -1 5 0 13 1 18 1 6 1 51 0 100 -1 50 -1 97 -1 105 1
29 1 250 0 257 -1 5 0 13 1 18 1 6 1 51 0 100 -1 50 -2 95 -1 100 0 6 1 44 2
85 2 135 32 239 93 330 35 52 126 142 165 161 14 8 28 17 31 20 6 6 102 44
139 54 13 4 50 9 82 10 32 2 63 6 69 10 5 3 10 1 10 -5 0 -6 4 -8 10 -5 15 9
91 12 96 3 3 -4 16 -3 29 2 14 5 25 6 25 2 0 -7 41 -7 138 1 24 1 46 -1 48 -5
3 -4 15 -3 28 2 13 5 27 6 30 3 6 -6 56 -6 139 0 21 1 41 -1 43 -5 3 -4 16 -3
29 2 14 5 25 6 25 2 0 -4 24 -6 52 -4 48 2 73 2 111 1 6 0 31 1 55 3 24 2 46
0 48 -4 3 -4 16 -3 29 2 14 5 25 6 25 2 0 -7 41 -7 138 1 24 1 46 -1 48 -5 3
-4 16 -3 29 2 14 5 27 5 30 1 3 -5 14 -7 26 -4 14 4 19 12 16 24 -3 11 -1 22
4 25 6 4 6 10 0 18 -6 7 -6 17 -1 26 5 8 5 21 0 31 -5 9 -6 19 -3 23 9 9 9 65
1 59 -5 -2 -4 7 2 21 6 16 6 26 0 26 -6 0 -6 9 0 25 6 16 6 25 0 25 -6 0 -6 9
0 25 5 13 5 27 1 29 -5 3 -5 24 -1 46 4 22 4 40 0 40 -5 0 -6 9 -3 20 3 11 0
20 -6 21 -39 3 -69 2 -84 -4 -9 -3 -17 -3 -17 1 0 4 -20 7 -45 7 -25 0 -45 -2
-45 -5 0 -3 -19 -4 -42 -2 -24 1 -81 2 -128 2 -47 0 -96 0 -110 1 -14 0 -31 0
-37 0 -14 -1 -31 -1 -168 -1 -49 0 -101 0 -115 1 -14 0 -31 0 -37 0 -14 -1
-31 -1 -168 -1 -49 0 -101 0 -115 1 -27 1 -29 1 -75 -4 -16 -1 -37 1 -46 5 -9
4 -18 5 -21 3z"/>
<path d="M6297 5074 c-1 -1 -37 -4 -79 -8 -81 -6 -255 -58 -320 -95 -21 -11
-55 -31 -75 -42 -21 -12 -40 -24 -43 -28 -3 -3 -23 -19 -45 -36 -89 -66 -195
-194 -249 -303 -30 -60 -72 -172 -81 -217 -16 -80 -22 -127 -21 -164 1 -23 -2
-41 -7 -41 -4 0 -3 -9 3 -20 8 -14 8 -20 0 -20 -6 0 -9 -4 -6 -8 2 -4 7 -37
11 -72 12 -115 35 -197 91 -325 26 -60 112 -181 175 -245 66 -67 158 -140 178
-140 6 0 11 -4 11 -8 0 -5 16 -14 35 -22 19 -8 35 -17 35 -22 0 -4 8 -8 18 -8
10 0 22 -4 27 -9 15 -14 182 -61 245 -68 145 -18 278 -5 416 39 38 12 71 22
74 23 3 0 30 14 60 29 78 41 164 100 218 152 25 24 49 44 54 44 4 0 8 4 8 8 0
5 10 20 21 33 24 27 119 166 120 174 0 2 9 26 20 52 31 71 49 123 42 123 -3 0
-1 6 5 13 5 6 13 35 17 62 5 28 10 57 12 65 5 22 5 218 -1 265 -3 22 -9 55
-15 73 -5 17 -8 32 -6 32 5 0 -30 103 -46 140 -87 192 -200 324 -369 431 -61
39 -160 85 -172 82 -4 -2 -8 1 -8 5 0 5 -6 9 -12 9 -7 0 -41 8 -76 17 -35 9
-84 19 -110 22 -55 6 -151 11 -155 8z m186 -383 c42 -11 106 -35 141 -52 145
-72 265 -232 292 -389 8 -47 12 -232 5 -245 -3 -5 -7 -19 -8 -29 -9 -58 -49
-148 -91 -206 -35 -47 -108 -120 -121 -120 -6 0 -11 -4 -11 -8 0 -13 -118 -73
-173 -87 -285 -73 -547 12 -694 226 -63 91 -94 194 -98 319 -5 181 56 337 178
452 141 132 381 190 580 139z"/>
<path d="M8378 5075 c-2 -1 -34 -5 -73 -8 -38 -3 -79 -8 -90 -11 -81 -18 -125
-32 -160 -49 -22 -11 -41 -19 -43 -18 -7 5 -117 -57 -168 -95 -90 -67 -156
-134 -217 -220 -119 -168 -172 -341 -171 -559 0 -116 7 -167 35 -265 7 -25 13
-50 14 -55 2 -6 19 -44 38 -85 91 -193 235 -341 427 -442 56 -29 162 -69 187
-70 5 0 17 -4 29 -8 11 -5 45 -11 75 -15 131 -18 251 -11 374 21 33 9 65 17
70 18 39 11 175 76 193 94 7 6 16 12 20 12 4 0 20 11 36 25 16 14 32 25 36 25
4 0 32 26 63 58 163 166 228 290 284 536 14 63 8 257 -11 356 -40 214 -193
455 -359 566 -23 15 -46 33 -52 39 -11 11 -140 75 -190 93 -46 17 -154 43
-199 48 -59 6 -145 11 -148 9z m157 -380 c30 -7 55 -10 55 -7 0 2 7 -2 17 -9
9 -8 19 -13 22 -12 10 3 88 -34 95 -46 4 -6 11 -9 15 -6 5 2 37 -23 73 -58 70
-69 112 -117 100 -117 -4 0 -2 -4 3 -8 12 -8 54 -98 60 -129 3 -13 8 -33 11
-45 11 -38 12 -226 3 -266 -5 -20 -11 -44 -13 -53 -25 -104 -110 -222 -222
-309 -43 -33 -181 -86 -252 -96 -37 -5 -162 -5 -192 0 -14 3 -39 7 -55 10 -84
13 -215 81 -280 144 -52 50 -87 92 -77 92 4 0 2 4 -4 8 -13 8 -62 103 -68 129
-1 10 -6 25 -9 33 -17 46 -28 218 -15 260 4 14 9 39 12 55 7 45 21 86 46 135
22 45 91 135 120 156 8 7 26 22 40 33 33 29 158 90 195 96 17 2 44 8 60 13 46
13 198 12 260 -3z"/>
<path d="M3870 5040 c-14 -9 -11 -17 60 -145 9 -16 30 -55 47 -85 17 -30 68
-125 115 -210 47 -85 102 -186 123 -225 20 -38 64 -118 96 -177 32 -59 59
-111 59 -116 0 -6 3 -12 8 -14 4 -1 18 -23 32 -48 l25 -45 1 -380 c1 -209 2
-383 3 -386 1 -5 45 -9 96 -9 8 0 22 0 30 0 8 0 22 0 30 0 8 0 22 0 30 0 8 0
22 0 30 0 8 0 23 0 33 0 50 -1 76 1 80 5 2 2 4 175 4 385 l0 382 27 46 c34 62
63 115 98 182 16 30 43 80 60 110 16 30 48 89 69 130 21 41 41 77 44 80 3 3
14 23 26 45 23 45 98 184 139 260 111 203 119 224 80 215 -25 -6 -293 -2 -303
4 -7 4 -12 3 -12 -3 0 -6 -6 -8 -14 -5 -13 5 -30 -22 -120 -190 -22 -41 -42
-77 -168 -305 -37 -68 -68 -127 -68 -130 0 -3 -8 -16 -18 -29 l-18 -23 -27 53
c-27 53 -73 137 -127 233 -15 28 -42 77 -60 110 -70 127 -84 152 -122 217
l-39 68 -82 0 c-95 0 -127 -1 -182 -4 -22 -1 -47 1 -56 5 -8 4 -21 4 -29 -1z"/>
<path d="M3914 2770 c-43 -9 -92 -22 -109 -29 -16 -7 -32 -13 -35 -13 -13 -1
-125 -86 -156 -118 -64 -65 -117 -159 -152 -270 -2 -8 -5 -71 -6 -140 -1 -140
11 -188 70 -297 72 -130 229 -253 355 -277 13 -2 42 -8 64 -13 131 -27 320 21
391 100 l37 40 -5 -89 c-9 -151 -64 -226 -192 -262 -29 -7 -194 -8 -231 0 -86
18 -173 65 -237 126 -21 20 -40 33 -44 29 -3 -3 -24 -58 -45 -122 -44 -131
-44 -129 25 -193 63 -58 181 -114 291 -138 49 -10 259 -11 273 -1 6 5 12 7 12
4 0 -16 151 40 208 76 99 64 164 151 203 272 22 69 23 75 23 678 1 343 -3 611
-8 614 -13 8 -257 10 -262 2 -2 -4 -5 -27 -5 -53 -1 -25 -5 -46 -8 -46 -3 0
-14 13 -25 28 -19 29 -102 73 -171 91 -70 18 -177 19 -261 1z m196 -290 c0 -3
16 -6 36 -7 53 -3 164 -60 197 -101 27 -35 27 -37 27 -187 l0 -153 -40 -35
c-64 -59 -131 -87 -218 -92 -24 -1 -46 -5 -49 -8 -3 -4 -13 -3 -22 2 -9 4 -31
8 -49 9 -44 3 -130 43 -168 78 -48 44 -88 132 -87 189 2 103 35 179 102 233
45 36 145 76 174 68 9 -2 17 -1 17 2 0 4 18 7 40 7 22 0 40 -2 40 -5z"/>
<path d="M5458 2785 c-2 -2 -21 -5 -43 -8 -48 -7 -135 -35 -152 -49 -7 -6 -13
-7 -13 -4 0 4 -26 -11 -57 -33 -67 -45 -153 -129 -153 -148 0 -7 -5 -13 -10
-13 -6 0 -16 -12 -23 -27 -6 -16 -14 -30 -18 -33 -3 -3 -19 -41 -34 -85 -34
-99 -43 -254 -19 -355 15 -64 70 -192 86 -198 4 -2 8 -9 8 -15 0 -16 147 -155
173 -163 12 -3 29 -12 37 -19 41 -34 145 -59 260 -61 63 -2 119 0 125 4 5 3
15 7 22 8 61 10 129 47 176 98 l27 30 0 -58 c0 -31 4 -55 8 -52 4 2 14 1 22
-4 8 -5 21 -5 31 1 11 6 20 5 24 -1 3 -6 15 -6 30 0 15 6 27 6 30 0 3 -6 15
-6 30 0 15 6 27 6 30 -1 4 -5 13 -6 22 0 9 4 23 6 32 4 15 -4 16 48 16 571 0
317 -2 576 -5 577 -3 0 -65 1 -137 2 l-133 2 0 -52 c0 -52 -13 -71 -24 -35 -9
27 -102 79 -174 97 -53 14 -186 27 -194 20z m112 -305 c0 -3 16 -5 34 -5 63 3
189 -64 219 -115 8 -14 16 -43 16 -65 4 -103 3 -134 -4 -144 -3 -6 -2 -11 2
-11 12 0 0 -120 -14 -146 -7 -11 -29 -33 -49 -49 -90 -69 -239 -91 -359 -54
-103 33 -181 117 -200 217 -2 9 -4 19 -5 22 -7 18 3 113 16 152 30 90 133 175
234 193 19 3 35 7 36 8 5 5 74 2 74 -3z"/>
<path d="M6965 2779 c-97 -17 -151 -44 -193 -94 -22 -27 -29 -32 -29 -18 0 10
-1 34 -2 53 l-1 35 -122 -2 c-68 -1 -130 -2 -138 -2 -13 -1 -15 -72 -15 -577
l0 -576 28 5 c15 2 30 0 33 -5 3 -5 10 -5 17 -1 16 10 57 10 57 0 0 -4 8 -4
18 1 9 5 26 6 37 2 11 -4 26 -5 33 -2 8 3 23 5 35 6 l22 1 3 365 3 365 27 40
c32 45 101 91 152 100 63 12 80 12 86 3 3 -4 10 -6 15 -3 21 13 148 -63 132
-79 -3 -3 -2 -6 4 -6 12 0 41 -74 42 -105 0 -11 0 -170 1 -353 0 -193 4 -330
10 -327 5 3 11 1 15 -5 4 -6 13 -7 23 -1 9 5 26 5 37 1 11 -4 29 -4 40 0 11 4
29 4 40 0 11 -4 30 -4 43 1 14 5 22 5 22 -2 0 -6 6 -6 18 0 9 5 22 9 27 10 6
1 10 127 11 353 1 194 5 365 9 381 4 15 18 36 31 46 13 10 21 21 17 24 -3 3
17 16 43 29 27 13 51 26 54 29 3 3 15 5 28 4 13 -1 25 1 27 5 8 13 104 -4 140
-24 34 -19 76 -66 93 -104 14 -32 16 -87 18 -387 l1 -350 23 -12 c15 -7 31 -8
46 -3 14 6 26 5 29 0 4 -6 13 -7 24 -1 9 5 23 6 31 1 7 -4 24 -4 36 0 14 6 26
5 29 0 4 -7 13 -7 24 0 10 5 21 6 25 2 18 -17 21 42 19 390 -2 370 -3 391 -18
458 -22 99 -123 231 -210 275 -22 11 -43 25 -47 30 -4 6 -8 7 -8 3 0 -4 -15
-2 -32 3 -59 18 -82 21 -153 21 -111 -1 -196 -19 -247 -54 -14 -10 -30 -18
-35 -18 -5 0 -29 -20 -53 -44 -42 -42 -46 -43 -61 -28 -105 110 -272 167 -414
141z"/>
<path d="M8960 2773 c-36 -8 -72 -15 -80 -16 -8 -1 -17 -4 -20 -7 -3 -3 -34
-20 -70 -38 -126 -65 -221 -178 -268 -323 -29 -87 -36 -129 -35 -229 2 -160
58 -304 158 -405 63 -63 118 -111 123 -106 1 1 22 -6 45 -17 102 -47 131 -53
272 -58 76 -2 129 1 170 11 66 17 153 53 173 72 7 7 17 13 21 13 4 0 29 21 55
47 53 54 53 57 11 158 -6 17 -18 46 -25 65 -18 48 -28 57 -42 38 -38 -46 -162
-106 -232 -111 -17 -2 -36 -5 -41 -8 -11 -7 -116 -3 -158 5 -92 17 -162 58
-201 116 -28 42 -43 89 -30 91 5 1 195 2 422 3 361 1 415 3 422 16 10 18 7
165 -5 225 -10 52 -53 163 -77 197 -10 14 -18 29 -18 32 0 7 -58 73 -95 108
-51 49 -166 106 -250 123 -57 12 -160 11 -225 -2z m185 -285 c4 -4 13 -4 20
-2 7 3 16 0 20 -5 3 -6 10 -9 14 -6 11 6 85 -44 109 -75 10 -14 24 -40 30 -57
l11 -33 -37 -1 c-160 -2 -516 1 -519 5 -9 8 31 80 60 108 24 23 78 48 144 69
21 7 141 4 148 -3z"/>
</g>
</svg>
