<svg id="Capa_1" enable-background="new 0 0 512 512" height="512" viewBox="0 0 512 512" width="512" xmlns="http://www.w3.org/2000/svg"><g><path d="m91 482v15c0 8.291 6.709 15 15 15h300c8.291 0 15-6.709 15-15v-46h-330z"/><path d="m241 421v-60h-120v-90c0-16.538-13.462-30-30-30s-30 13.462-30 30v120c0 16.538 13.462 30 30 30z"/><path d="m421 241c-16.538 0-30 13.462-30 30v90h-120v60h150c16.538 0 30-13.462 30-30v-120c0-16.538-13.462-30-30-30z"/><path d="m241 241h30v30h-30z"/><path d="m416.254 152.963-23.672-47.344c-1.04-2.065-1.582-4.38-1.582-6.694v-53.925c0-24.814-20.186-45-45-45h-180c-24.814 0-45 20.186-45 45v53.925c0 2.314-.542 4.629-1.582 6.694l-23.672 47.344c-3.105 6.211-4.746 13.169-4.746 20.112v37.925c33.091 0 60 26.909 60 60v60h90v-30h-15c-8.284 0-15-6.716-15-15v-53.787l-55.606-55.606c-5.858-5.858-5.858-15.355 0-21.213 5.857-5.858 15.355-5.858 21.213 0l55.606 55.606h47.574l55.606-55.606c5.857-5.858 15.355-5.858 21.213 0s5.858 15.355 0 21.213l-55.606 55.606v53.787c0 8.284-6.716 15-15 15h-15v30h90v-60c0-33.091 26.909-60 60-60v-37.925c0-6.943-1.641-13.901-4.746-20.112z"/></g></svg>