<svg id="Capa_1" enable-background="new 0 0 512 512" height="512" viewBox="0 0 512 512" width="512" xmlns="http://www.w3.org/2000/svg"><g id="Driver"><g><path d="m96.559 150h318.882c13.326-12.75 20.559-27.244 20.559-42.905 0-55.049-87.48-107.095-180-107.095s-180 52.046-180 107.095c0 15.661 7.233 30.155 20.559 42.905zm101.961-83.32c4.556-6.885 13.857-8.745 20.801-4.16l36.679 24.448 36.68-24.448c6.899-4.585 16.201-2.725 20.801 4.16 4.6 6.899 2.739 16.201-4.16 20.801l-45 30c-2.52 1.685-5.42 2.52-8.32 2.52s-5.801-.835-8.32-2.52l-45-30c-6.901-4.6-8.761-13.902-4.161-20.801z"/><path d="m138.754 180c10.891 34.581 58.262 60 117.246 60s106.355-25.419 117.246-60z"/></g><g><path d="m201.806 512h108.387l28.085-84.26c-13.573 32.362-45.884 54.26-82.278 54.26-36.357 0-68.681-21.982-82.546-55.052z"/><path d="m130.194 392h-9.194c-57.891 0-105 47.109-105 105 0 8.291 6.709 15 15 15h139.195z"/><path d="m391 392h-9.197l-39.998 120h139.195c8.291 0 15-6.709 15-15 0-57.708-46.84-105-105-105z"/></g><path d="m256 270c-49.759 0-92.873-15.645-120-40.915v42.915c0 42.642 23.262 82.295 60 103.55v16.45c0 32.245 26.105 60 60 60 33.847 0 60-27.589 60-60v-16.45c36.738-21.255 60-60.908 60-103.55v-42.915c-27.127 25.27-70.241 40.915-120 40.915zm56.572 51.995c-8.452 23.936-31.186 40.005-56.572 40.005s-48.12-16.069-56.572-40.005c-2.769-7.808 1.318-16.377 9.141-19.131 7.793-2.754 16.377 1.333 19.131 9.141 4.233 11.953 15.614 19.995 28.3 19.995s24.067-8.042 28.301-19.995c2.739-7.822 11.382-11.909 19.131-9.141 7.822 2.754 11.909 11.324 9.14 19.131z"/></g></svg>