<svg xmlns="http://www.w3.org/2000/svg" height="512pt" version="1.1" viewBox="-25 0 512 512.00078" width="512pt">
<g id="surface1">
<path d="M 266.4375 104.960938 L 322.957031 104.960938 L 236.449219 13.957031 L 236.449219 74.855469 C 236.449219 91.351562 249.828125 104.960938 266.4375 104.960938 Z M 266.4375 104.960938 " style=" stroke:none;fill-rule:nonzero;fill:rgb(0%,0%,0%);fill-opacity:1;" />
<path d="M 172.667969 334.488281 L 72.433594 334.488281 C 67.359375 334.488281 63.207031 330.339844 63.207031 325.261719 C 63.207031 320.1875 67.359375 316.035156 72.433594 316.035156 L 178.78125 316.035156 C 184.660156 301.042969 192.503906 288.351562 202.195312 275.664062 L 72.433594 275.664062 C 67.359375 275.664062 63.207031 271.515625 63.207031 266.4375 C 63.207031 261.363281 67.359375 257.210938 72.433594 257.210938 L 219.726562 257.210938 C 247.40625 232.988281 284.085938 217.535156 324.109375 217.535156 C 327.914062 217.535156 331.03125 217.878906 335.644531 218.226562 L 335.644531 123.414062 L 266.4375 123.414062 C 239.679688 123.414062 217.996094 101.5 217.996094 74.855469 L 217.996094 0 L 41.0625 0 C 18.222656 0 0 18.683594 0 41.636719 L 0 393.660156 C 0 416.613281 18.222656 434.835938 41.0625 434.835938 L 180.046875 434.835938 C 172.089844 416.382812 167.707031 395.621094 167.707031 373.9375 C 167.589844 360.328125 169.4375 347.175781 172.667969 334.488281 Z M 72.433594 199.539062 L 189.277344 199.539062 C 194.351562 199.539062 198.503906 203.691406 198.503906 208.769531 C 198.503906 213.84375 194.351562 217.996094 189.277344 217.996094 L 72.433594 217.996094 C 67.359375 217.996094 63.207031 213.84375 63.207031 208.769531 C 63.207031 203.691406 67.359375 199.539062 72.433594 199.539062 Z M 72.433594 199.539062 " style=" stroke:none;fill-rule:nonzero;fill:rgb(0%,0%,0%);fill-opacity:1;" />
<path d="M 323.992188 236.335938 C 247.984375 236.335938 186.160156 298.15625 186.160156 374.167969 C 186.160156 450.175781 247.984375 512 323.992188 512 C 400.003906 512 461.828125 450.175781 461.828125 374.167969 C 461.828125 298.15625 400.003906 236.335938 323.992188 236.335938 Z M 323.765625 364.25 C 351.5625 364.25 374.050781 386.855469 374.050781 414.535156 C 374.050781 439.449219 355.945312 460.097656 332.183594 464.132812 L 332.183594 477.511719 C 332.183594 482.589844 328.03125 486.742188 322.957031 486.742188 C 317.882812 486.742188 313.730469 482.589844 313.730469 477.511719 L 313.730469 463.789062 C 290.777344 459.058594 273.476562 438.757812 273.476562 414.535156 C 273.476562 409.460938 277.628906 405.308594 282.703125 405.308594 C 287.777344 405.308594 291.929688 409.460938 291.929688 414.535156 C 291.929688 432.070312 306.234375 446.371094 323.765625 446.371094 C 341.296875 446.371094 355.597656 432.066406 355.597656 414.535156 C 355.597656 397.003906 341.296875 382.703125 323.765625 382.703125 C 295.96875 382.703125 273.476562 360.09375 273.476562 332.414062 C 273.476562 308.074219 290.777344 287.777344 313.730469 283.164062 L 313.730469 273.359375 C 313.730469 268.28125 317.882812 264.128906 322.957031 264.128906 C 328.03125 264.128906 332.183594 268.28125 332.183594 273.359375 L 332.183594 282.699219 C 355.945312 286.738281 374.050781 307.382812 374.050781 332.296875 C 374.050781 337.371094 369.902344 341.523438 364.824219 341.523438 C 359.75 341.523438 355.597656 337.371094 355.597656 332.296875 C 355.597656 315.457031 342.449219 301.617188 325.839844 300.464844 C 324.917969 300.808594 323.878906 300.925781 322.839844 300.925781 C 321.917969 300.925781 321.109375 300.808594 320.1875 300.578125 C 304.269531 302.308594 291.816406 315.804688 291.816406 332.296875 C 291.929688 349.945312 306.230469 364.25 323.765625 364.25 Z M 323.765625 364.25 " style=" stroke:none;fill-rule:nonzero;fill:rgb(0%,0%,0%);fill-opacity:1;" />
</g>
</svg>