<?xml version="1.0" encoding="iso-8859-1"?>
<!-- Generator: Adobe Illustrator 19.0.0, SVG Export Plug-In . SVG Version: 6.00 Build 0)  -->
<svg version="1.1" id="Capa_1" xmlns="http://www.w3.org/2000/svg" xmlns:xlink="http://www.w3.org/1999/xlink" x="0px" y="0px"
	 viewBox="0 0 512 512" style="enable-background:new 0 0 512 512;" xml:space="preserve">
<g>
	<g>
		<path d="M496.807,10.888H15.193C6.802,10.888,0,17.691,0,26.081v459.838c0,8.391,6.802,15.193,15.193,15.193h481.614
			c8.391,0,15.193-6.802,15.193-15.193V26.081C512,17.691,505.198,10.888,496.807,10.888z M481.614,470.726H30.386V41.274h451.229
			V470.726z"/>
	</g>
</g>
<g>
	<g>
		<path d="M126.793,82.146v29.372l-14.141-26.971c-5.029-9.66-8.438-11.205-16.804-11.205c-7.541,0-12.607,3.588-12.607,8.927
			v77.903c0.001,11.915,25.216,11.926,25.216,0v-29.865l17.604,32.058c3.243,5.969,8.832,6.734,13.339,6.734
			c7.423,0,12.608-3.672,12.608-8.927V82.146C152.009,70.342,126.793,70.338,126.793,82.146z"/>
	</g>
</g>
<g>
	<g>
		<path d="M222.33,146.337h-29.84v-14.779h15.363c11.808,0,11.655-20.799,0-20.799H192.49V96.103h29.84
			c11.653,0,11.868-22.762,0-22.762h-43.674c-6.595,0-11.38,3.755-11.38,8.927v77.903c-0.001,5.173,4.786,8.927,11.38,8.927h43.674
			C234.202,169.099,233.972,146.337,222.33,146.337z"/>
	</g>
</g>
<g>
	<g>
		<path d="M328.964,79.073l-15.387,51.931l-7.072-30.258c-2.199-9.896-22.148-9.845-24.328-0.032l-7.08,30.291L259.718,79.1
			c-3.288-11.502-27.919-4.096-24.091,7.421l24.404,74.807c3.656,11.628,28.287,11.153,30.895-0.26l3.41-15.548l3.417,15.574
			c2.556,11.187,26.836,12.055,30.864,0.308l24.422-74.86C356.896,74.982,332.233,67.629,328.964,79.073z"/>
	</g>
</g>
<g>
	<g>
		<path d="M385.581,99.199c0-2.625,3.623-4.323,9.229-4.323c9.425,0,11.14,4.662,16.807,4.662c7.523,0,10.645-8.531,10.645-13.099
			c0-12.837-21.012-13.835-27.453-13.835c-15.89,0-34.445,7.447-34.445,28.434c0,30.115,38.89,29.69,38.89,40.976
			c0,4.916-7.955,5.058-8.862,5.058c-10.413,0-13.396-9.078-20.856-9.078c-6.842,0-11.38,8.032-11.38,13.343
			c0,22.501,66.314,31.862,66.314-11.286C424.471,108.085,385.581,107.524,385.581,99.199z"/>
	</g>
</g>
<g>
	<g>
		<path d="M204.019,277.633H79.655c-8.391,0-15.193,6.802-15.193,15.193v140.499c0,8.391,6.801,15.193,15.193,15.193h124.364
			c8.391,0,15.193-6.802,15.193-15.193V292.826C219.212,284.435,212.41,277.633,204.019,277.633z M188.826,418.131H94.848V308.018
			h93.978V418.131z"/>
	</g>
</g>
<g>
	<g>
		<path d="M422.575,202.515H79.655c-8.391,0-15.193,6.802-15.193,15.193s6.801,15.193,15.193,15.193h342.919
			c8.391,0,15.193-6.802,15.193-15.193S430.965,202.515,422.575,202.515z"/>
	</g>
</g>
<g>
	<g>
		<path d="M422.278,277.433H291.577c-8.391,0-15.193,6.802-15.193,15.193s6.802,15.193,15.193,15.193h130.701
			c8.391,0,15.193-6.802,15.193-15.193S430.668,277.433,422.278,277.433z"/>
	</g>
</g>
<g>
	<g>
		<path d="M422.278,342.913H291.577c-8.391,0-15.193,6.802-15.193,15.193s6.802,15.193,15.193,15.193h130.701
			c8.391,0,15.193-6.802,15.193-15.193S430.668,342.913,422.278,342.913z"/>
	</g>
</g>
<g>
	<g>
		<path d="M422.278,408.393H291.577c-8.391,0-15.193,6.802-15.193,15.193s6.802,15.193,15.193,15.193h130.701
			c8.391,0,15.193-6.802,15.193-15.193S430.668,408.393,422.278,408.393z"/>
	</g>
</g>
<g>
</g>
<g>
</g>
<g>
</g>
<g>
</g>
<g>
</g>
<g>
</g>
<g>
</g>
<g>
</g>
<g>
</g>
<g>
</g>
<g>
</g>
<g>
</g>
<g>
</g>
<g>
</g>
<g>
</g>
</svg>
